<svg xmlns="http://www.w3.org/2000/svg" data-name="Layer 1" width="816.21532" height="621.82612" viewBox="0 0 816.21532 621.82612" xmlns:xlink="http://www.w3.org/1999/xlink"><path d="M518.50083,268.28567h-2.97759V186.71655a56.18526,56.18526,0,0,0-56.18525-56.18526H263.76409a56.18527,56.18527,0,0,0-56.18526,56.18526V682.67023a56.18527,56.18527,0,0,0,56.18526,56.18526H459.33799a56.18526,56.18526,0,0,0,56.18525-56.18526V346.28567h2.97759Z" transform="translate(-191.89234 -139.08694)" fill="#3f3d56"/><path d="M458.77643,142.58835H437.711a20.11433,20.11433,0,0,1-18.61841,27.73228H304.49081a20.11434,20.11434,0,0,1-18.6184-27.73228H266.32566a41.99851,41.99851,0,0,0-41.99851,41.99851V682.80132a41.99852,41.99852,0,0,0,41.99851,41.99852H458.77643a41.99852,41.99852,0,0,0,41.99851-41.99852h0V184.58686A41.99852,41.99852,0,0,0,458.77643,142.58835Z" transform="translate(-191.89234 -139.08694)" fill="#fff"/><path d="M488.50083,268.28567h-2.97759V186.71655a56.18526,56.18526,0,0,0-56.18525-56.18526H233.76409a56.18527,56.18527,0,0,0-56.18526,56.18526V682.67023a56.18527,56.18527,0,0,0,56.18526,56.18526H429.33799a56.18526,56.18526,0,0,0,56.18525-56.18526V346.28567h2.97759Z" transform="translate(-191.89234 -139.08694)" fill="#3f3d56"/><path d="M428.77643,142.58835H407.711a20.11433,20.11433,0,0,1-18.61841,27.73228H274.49081a20.11434,20.11434,0,0,1-18.6184-27.73228H236.32566a41.99851,41.99851,0,0,0-41.99851,41.99851V682.80132a41.99852,41.99852,0,0,0,41.99851,41.99852H428.77643a41.99852,41.99852,0,0,0,41.99851-41.99852h0V184.58686A41.99852,41.99852,0,0,0,428.77643,142.58835Z" transform="translate(-191.89234 -139.08694)" fill="#fff"/><circle cx="166.3" cy="179.67375" r="10" fill="#e6e6e6"/><circle cx="166.3" cy="251.67375" r="10" fill="#e6e6e6"/><circle cx="166.3" cy="323.67375" r="10" fill="#e6e6e6"/><rect x="185.51081" y="174.91048" width="148.41676" height="10" fill="#e6e6e6"/><rect x="185.51081" y="246.91048" width="148.41676" height="10" fill="#e6e6e6"/><rect x="185.51081" y="318.91048" width="148.41676" height="10" fill="#e6e6e6"/><circle cx="166.3" cy="395.67375" r="10" fill="#4361ee"/><rect x="185.51081" y="390.91048" width="148.41676" height="10" fill="#4361ee"/><circle cx="362.94199" cy="395.67375" r="50" fill="#4361ee" opacity="0.2"/><circle cx="362.94199" cy="395.67375" r="40" fill="#4361ee"/><polygon points="362.275 374.191 360.942 375.579 374.275 388.191 360.942 400.803 362.275 402.191 376.942 388.191 362.275 374.191" fill="#fff"/><polygon points="362.275 374.191 360.942 375.579 348.942 388.191 360.942 400.803 362.275 402.191 349.608 388.191 362.275 374.191" fill="#fff"/><path d="M974.41219,645.08h-2V401a79,79,0,0,0-79-79H536.41219a79,79,0,0,0-79,79V645.08h-2V401a81.00164,81.00164,0,0,1,81-81H893.41219a81.00164,81.00164,0,0,1,81,81Z" transform="translate(-191.89234 -139.08694)" fill="#3f3d56"/><path d="M601.8633,625.91306h264.295V500.03654v-2h-190.295V398.91306h-2v99.12348h-72Z" transform="translate(-191.89234 -139.08694)" fill="#3f3d56"/><rect x="529.41681" y="318.91048" width="148.41676" height="10" fill="#e6e6e6"/><rect x="529.41681" y="354.91048" width="148.41676" height="10" fill="#e6e6e6"/><rect x="529.41681" y="390.91048" width="148.41676" height="10" fill="#e6e6e6"/><circle cx="841.91304" cy="388.91306" r="20" fill="#3f3d56"/><circle cx="841.91304" cy="477.91306" r="20" fill="#3f3d56"/><rect x="861.91304" y="378.91306" width="22" height="20" fill="#3f3d56"/><rect x="861.91304" y="467.91306" width="22" height="20" fill="#3f3d56"/><path d="M937.60544,548a10.8,10.8,0,0,0,9.439-16.916l24.06982-24.56782-17.91115-7.752-21.3716,23.39569A10.85857,10.85857,0,0,0,937.60544,548Z" transform="translate(-191.89234 -139.08694)" fill="#ffb8b8"/><polygon points="816.214 598.527 799.856 602.419 778.345 541.907 802.784 536.178 816.214 598.527" fill="#ffb8b8"/><path d="M993.17338,754.447l-59.679,14.233a4.52376,4.52376,0,0,1-5.47578-3.339l-.00046-.00187-14.70276-62.91462a4.50509,4.50509,0,0,1,3.49379-5.41961l34.43234-8.13465,11.32877,34.32515,15.41627-2.987,19.4217,28.79315A4.51545,4.51545,0,0,1,993.17338,754.447Z" transform="translate(-191.89234 -139.08694)" fill="#2f2e41"/><polygon points="757.214 609.527 740.856 613.419 719.345 552.907 743.784 547.178 757.214 609.527" fill="#ffb8b8"/><path d="M934.17338,765.447l-59.679,14.233a4.52376,4.52376,0,0,1-5.47578-3.339l-.00046-.00187-14.70276-62.91462a4.50509,4.50509,0,0,1,3.49379-5.41961l34.43234-8.13465,11.32877,34.32515,15.41627-2.987,19.4217,28.79315A4.51545,4.51545,0,0,1,934.17338,765.447Z" transform="translate(-191.89234 -139.08694)" fill="#2f2e41"/><circle cx="761.21523" cy="252.77929" r="23.6538" fill="#ffb8b8"/><path d="M939.684,396.11341l28.38287-14.19144-7.09571-35.47855c-.10361-.51827-.18435-.96747-.25287-1.37575-2.09886-12.55825-6.15566-15.79688-6.15566-15.79688-1.67577-2.26712-3.93363-3.95221-6.52727-5.14414a26.06222,26.06222,0,0,0-28.2907,6.56006l-11.0102,13.35709Z" transform="translate(-191.89234 -139.08694)" fill="#4361ee"/><path d="M868.32959,448.21641c.22949-.40235.46778-.8242.72754-1.27734,14.89404-26.01758,40.49707-76.76758,41.95312-86.55078.9541.34082,1.91015.69433,2.86914,1.06933a43.06213,43.06213,0,0,1,19.62794,13.65137,39.94729,39.94729,0,0,1,9.10937,23.10352c.15332,21.1875-7.125,87.7666-7.48145,91.54394-.58691,6.27735-4.34863,8.77735-8.39453,9.31836-.40234.05372-.80761.08008-1.21387.08008-3.93359,0-7.89648-2.70508-8.61523-6.36328-2.61718-13.35352-3.291-28.07618-3.32422-40.48145-.02735-8.55468-5.12891-20.55078-9.71094-30.73633-3.29883-7.34179-6.41406-14.2793-7.21094-18.05468a.55692.55692,0,0,0-.65039-.44141.51458.51458,0,0,0-.42969.6582c.19629.78321,4.75879,19.40137-19.0957,56.87109-.49512.78125-1.1084,1.71094-1.77832,2.70508-5.28515,7.87695-14.12988,21.06738-13.079,27.38672a5.76047,5.76047,0,0,0,1.54981,3.291,5.03459,5.03459,0,0,0,3.86621,1.69824c3.4502,0,7.502-2.69727,12.19824-8.0918Z" transform="translate(-191.89234 -139.08694)" fill="#2f2e41"/><path d="M957.17338,448.08694h-70a4,4,0,0,1,0-8h70a4,4,0,0,1,0,8Z" transform="translate(-191.89234 -139.08694)" fill="#4361ee"/><path d="M927.17338,466.08694h-40a4,4,0,0,1,0-8h40a4,4,0,0,1,0,8Z" transform="translate(-191.89234 -139.08694)" fill="#4361ee"/><path d="M898.35686,508.47027a10.05579,10.05579,0,0,0,5.277-14.48823l23.35887-27.04334-18.41226-2.39612-19.35886,26.04187a10.11028,10.11028,0,0,0,9.14529,17.88582Z" transform="translate(-191.89234 -139.08694)" fill="#ffb8b8"/><path d="M906.529,487.07515a4.48916,4.48916,0,0,1-2.46533-1.51373L878.77,457.08694a10.02384,10.02384,0,0,1,2.88769-15.59863,9.91764,9.91764,0,0,1,10.1160089.65087l28.29253,24.00489a4.51452,4.51452,0,0,1,.5122,6.3623l-9.90759,12.87012a4.46671,4.46671,0,0,1-3.25464,1.68652A4.56891,4.56891,0,0,1,906.529,487.07515Z" transform="translate(-191.89234 -139.08694)" fill="#4361ee"/><path d="M945.20594,355.92373c-4.77905-.678-8.73956-4.95715-9.22511-9.78284a14.85464,14.85464,0,0,1,5.37923-13.32052,24.96479,24.96479,0,0,1,14.59247-5.33887,40.54225,40.54225,0,0,1,33.39462,12.09283,38.71831,38.71831,0,0,1,10.67075,32.41766c-1.57324,13.14914-10.79292,25.16587-23.32284,29.28142-10.52829,3.44584-23.38556,1.05053-31.48159-6.32726-7.09979-6.47373-9.3576-17.06545-5.57806-25.56218a24.96668,24.96668,0,0,1,5.10159-7.09792,11.3159,11.3159,0,0,1,6.28008-3.18252c2.16667-.21755,4.40986.42431,5.86148,2.11009s1.9249,4.30753.6956,6.27734c-1.22084,1.95378-3.99114,2.67276-6.11884,1.88441s-3.58475-2.87998-4.01712-5.07795-.0201-4.4396.72467-6.52609" transform="translate(-191.89234 -139.08694)" fill="#2f2e41"/><path d="M591.97982,502.29851a8.12136,8.12136,0,0,1,2.83364-9.78624l55.94593-106.95013a7.40488,7.40488,0,0,1,11.5431-2.6839l28.74825,24.53558,26.59289,28.06268L644.00144,533.11311a8.16428,8.16428,0,0,1-10.97161,3.09531l-36.8981-23.33791A8.12106,8.12106,0,0,1,591.97982,502.29851Z" transform="translate(-191.89234 -139.08694)" fill="#3f3d56"/><circle cx="413.5" cy="232.5" r="19" fill="#4361ee"/><path d="M614.79659,369.76339c1.00055-1.16315,2.64174-.57253,3.81041.19892,15.59885,10.3069,34.01221,15.28751,52.13108,14.08642,1.39214-.09243,2.96964-.23519,3.79351-1.36442,1.50287-2.05243-1.14559-4.5615-3.41189-5.22638-12.11866-3.55018-24.00219-9.566-32.66048-19.00613a37.36842,37.36842,0,0,1-11.52352-27.21731c.1465-2.05551-3.04587-2.05793-3.19243,0a40.3464,40.3464,0,0,0,10.14308,28.69678c8.61773,9.63257,20.53962,15.94168,32.70831,19.67891a25.434,25.434,0,0,1,8.93211,3.86157,4.47908,4.47908,0,0,1,1.58928,5.62156c-.93987,1.85646-2.98145,2.43827-4.92887,2.62749-19.55287,1.90572-39.12155-4.51211-55.26158-16.22049a2.2099,2.2099,0,0,1-.71892-3.01492C614.48006,370.13826,614.63935,369.94877,614.79659,369.76339Z" transform="translate(-191.89234 -139.08694)" fill="#2f2e41"/><path d="M579.8727,374.06265c.1465-2.05551-3.04587-2.05793-3.19243,0a40.3464,40.3464,0,0,0,10.14308,28.69678c8.61773,9.63257,20.53962,15.94168,32.70831,19.67891a25.434,25.434,0,0,1,8.93211,3.86157,4.47908,4.47908,0,0,1,1.58928,5.62156c-.93987,1.85646-2.98145,2.43827-4.92887,2.62749-19.55287,1.90572-39.12155-4.51211-55.26158-16.22049a2.2099,2.2099,0,0,1-.71892-3.01492c.02243-.02863.181-.21812.33826-.4035,1.00055-1.16315,2.64174-.57253,3.81041.19892,15.59885,10.3069,34.01221,15.28751,52.13108,14.08642,1.39214-.09243,2.96964-.23519,3.79351-1.36442,1.50287-2.05243-1.14559-4.5615-3.41189-5.22638-12.11866-3.55018-24.00219-9.566-32.66048-19.00613A37.36842,37.36842,0,0,1,579.8727,374.06265Z" transform="translate(-191.89234 -139.08694)" fill="#2f2e41"/><path d="M627.39386,369.58694v142a4.50045,4.50045,0,0,1-4.5,4.5h-121a4.50051,4.50051,0,0,1-4.5-4.5v-142a4.50051,4.50051,0,0,1,4.5-4.5h121A4.50045,4.50045,0,0,1,627.39386,369.58694Z" transform="translate(-191.89234 -139.08694)" fill="#4361ee"/><path d="M593.89386,488.08694h-80v-92h80Zm-77-3h74v-86h-74Z" transform="translate(-191.89234 -139.08694)" fill="#3f3d56"/><path d="M603.89386,507.08694h-100v-24h100Zm-97-3h94v-18h-94Z" transform="translate(-191.89234 -139.08694)" fill="#3f3d56"/><path d="M626.89386,400.08694h-120v-10h120Zm-117-3h114v-4h-114Z" transform="translate(-191.89234 -139.08694)" fill="#3f3d56"/><path d="M626.89386,423.08694h-120v-10h120Zm-117-3h114v-4h-114Z" transform="translate(-191.89234 -139.08694)" fill="#3f3d56"/><circle cx="461.50153" cy="255" r="3" fill="#3f3d56"/><path d="M573.89386,398.08694h-12v-6h12Zm-9-3h6v-0h-6Z" transform="translate(-191.89234 -139.08694)" fill="#3f3d56"/><path d="M573.89386,422.08694h-12v-6h12Zm-9-3h6v-0h-6Z" transform="translate(-191.89234 -139.08694)" fill="#3f3d56"/><path d="M553.39386,401.58694a4.5,4.5,0,1,1,4.5-4.5A4.50491,4.50491,0,0,1,553.39386,401.58694Zm0-6a1.5,1.5,0,1,0,1.5,1.5A1.50164,1.50164,0,0,0,553.39386,395.58694Z" transform="translate(-191.89234 -139.08694)" fill="#3f3d56"/><path d="M555.39386,421.58694a4.5,4.5,0,1,1,4.5-4.5A4.50491,4.50491,0,0,1,555.39386,421.58694Zm0-6a1.5,1.5,0,1,0,1.5,1.5A1.50164,1.50164,0,0,0,555.39386,415.58694Z" transform="translate(-191.89234 -139.08694)" fill="#3f3d56"/><rect x="525.00153" y="403" width="10" height="10" rx="1" fill="#3f3d56"/><rect x="545.00153" y="403" width="10" height="10" rx="1" fill="#3f3d56"/><rect x="565.00153" y="403" width="10" height="10" rx="1" fill="#3f3d56"/><path d="M583.39386,459.58694a4.5,4.5,0,1,1,4.5-4.5A4.50492,4.50492,0,0,1,583.39386,459.58694Zm0-6a1.5,1.5,0,1,0,1.5,1.5A1.50164,1.50164,0,0,0,583.39386,453.58694Z" transform="translate(-191.89234 -139.08694)" fill="#3f3d56"/><rect x="519.00153" y="430" width="6" height="6" rx="0.5" fill="#3f3d56"/><rect x="529.00153" y="430" width="6" height="6" rx="0.5" fill="#3f3d56"/><rect x="539.00153" y="430" width="6" height="6" rx="0.5" fill="#3f3d56"/><rect x="549.00153" y="430" width="6" height="6" rx="0.5" fill="#3f3d56"/><rect x="559.00153" y="430" width="6" height="6" rx="0.5" fill="#3f3d56"/><path d="M587.39386,475.58694h-20a4.5,4.5,0,0,1,0-9h20a4.5,4.5,0,0,1,0,9Zm-20-6a1.5,1.5,0,0,0,0,3h20a1.5,1.5,0,0,0,0-3Z" transform="translate(-191.89234 -139.08694)" fill="#3f3d56"/><path d="M553.39386,444.58694a4.5,4.5,0,1,1,4.5-4.5A4.50491,4.50491,0,0,1,553.39386,444.58694Zm0-6a1.5,1.5,0,1,0,1.5,1.5A1.50164,1.50164,0,0,0,553.39386,438.58694Z" transform="translate(-191.89234 -139.08694)" fill="#3f3d56"/></svg> 